<?xml version="1.0" standalone="no"?>
<!DOCTYPE svg PUBLIC "-//W3C//DTD SVG 20010904//EN"
 "http://www.w3.org/TR/2001/REC-SVG-20010904/DTD/svg10.dtd">
<svg version="1.0" xmlns="http://www.w3.org/2000/svg"
 width="700.000000pt" height="700.000000pt" viewBox="0 0 700.000000 700.000000"
 preserveAspectRatio="xMidYMid meet">
<metadata>
Created by potrace 1.11, written by Peter Selinger 2001-2013
</metadata>
<g transform="translate(0.000000,700.000000) scale(0.100000,-0.100000)"
fill="#000000" stroke="none">
<path d="M598 6989 c-77 -11 -187 -50 -256 -91 -73 -42 -198 -167 -240 -240
-45 -76 -80 -181 -93 -275 -6 -52 -9 -1023 -7 -2938 3 -2719 4 -2863 21 -2920
75 -250 260 -433 507 -502 62 -17 193 -18 2970 -18 2777 0 2908 1 2970 18 249
70 437 258 507 507 17 62 18 193 18 2970 0 2780 -1 2908 -18 2970 -70 249
-250 431 -502 507 -57 17 -195 18 -2940 19 -1584 1 -2906 -2 -2937 -7z m3767
-749 c407 -254 751 -472 763 -484 54 -48 52 -3 52 -1000 l0 -925 543 -3 c524
-3 543 -4 577 -23 74 -44 70 21 70 -1035 0 -902 -1 -946 -19 -975 -20 -35
-1038 -762 -1093 -782 -25 -9 -439 -12 -1720 -12 l-1687 -1 -580 413 c-509
361 -584 417 -601 453 -20 40 -20 61 -20 1287 0 1359 -3 1288 57 1337 16 14
257 160 536 325 l505 300 4 322 3 323 31 31 c20 20 347 195 890 476 815 421
861 444 904 440 39 -3 141 -63 785 -467z m662 -5397 c53 -25 75 -66 70 -132
-3 -47 -9 -59 -40 -88 l-37 -33 -1460 0 -1460 0 -37 33 c-31 29 -37 41 -40 88
-3 42 0 61 17 87 40 65 -56 61 1518 62 1319 0 1437 -1 1469 -17z m-483 -387
c72 -30 100 -106 67 -180 -38 -87 35 -81 -996 -84 -500 -2 -935 0 -965 3 -45
6 -61 13 -92 45 -34 33 -38 43 -38 86 0 60 25 104 71 127 31 15 118 17 977 17
779 0 948 -2 976 -14z"/>
<path d="M3060 6144 c-272 -141 -614 -318 -760 -394 l-265 -137 -2 -184 -2
-184 182 -118 c414 -268 983 -654 1002 -680 20 -28 20 -41 23 -1143 2 -1076 2
-1117 -17 -1158 -14 -33 -29 -48 -63 -65 -44 -21 -50 -21 -669 -21 -696 0
-668 -3 -716 69 l-23 34 0 1308 c0 720 -3 1309 -7 1308 -5 0 -186 -107 -403
-237 l-395 -238 -2 -1154 -2 -1155 497 -352 497 -352 1618 -1 1617 0 460 326
460 326 0 799 0 799 -455 0 -455 0 0 -681 c0 -753 2 -725 -64 -772 l-31 -22
-577 0 c-567 0 -577 0 -604 21 -15 11 -37 33 -48 48 -21 27 -21 35 -21 811 0
776 0 784 21 811 11 15 33 37 48 48 27 20 41 21 507 24 l479 3 0 872 -1 872
-658 413 c-362 226 -662 412 -667 412 -5 0 -232 -116 -504 -256z"/>
<path d="M2030 3625 l0 -1275 460 0 460 0 0 973 0 974 -453 301 c-249 166
-456 302 -460 302 -4 0 -7 -574 -7 -1275z"/>
<path d="M4120 2945 l0 -595 385 0 385 0 0 595 0 595 -385 0 -385 0 0 -595z"/>
</g>
</svg>
